<svg width="24" height="24" viewBox="0 0 24 24" fill="none" xmlns="http://www.w3.org/2000/svg">
    <path fill-rule="evenodd" clip-rule="evenodd" d="M8 22C8.55228 22 9 21.5523 9 21C9 20.4477 8.55228 20 8 20C7.44772 20 7 20.4477 7 21C7 21.5523 7.44772 22 8 22ZM8 24C9.65685 24 11 22.6569 11 21C11 19.3431 9.65685 18 8 18C6.34315 18 5 19.3431 5 21C5 22.6569 6.34315 24 8 24Z" fill="#333333"/>
    <path fill-rule="evenodd" clip-rule="evenodd" d="M17 22C17.5523 22 18 21.5523 18 21C18 20.4477 17.5523 20 17 20C16.4477 20 16 20.4477 16 21C16 21.5523 16.4477 22 17 22ZM17 24C18.6569 24 20 22.6569 20 21C20 19.3431 18.6569 18 17 18C15.3431 18 14 19.3431 14 21C14 22.6569 15.3431 24 17 24Z" fill="#333333"/>
    <path fill-rule="evenodd" clip-rule="evenodd" d="M4 0H1C0.447715 0 0 0.447715 0 1C0 1.55228 0.447715 2 1 2H3.12448L5.00877 16.1322C5.07501 16.629 5.4988 17 6 17H19C19.5523 17 20 16.5523 20 16C20 15.4477 19.5523 15 19 15H6.87552L6.73202 13.9238L20.0693 12.9976C20.4433 12.9716 20.7714 12.7386 20.9191 12.3939L23.9191 5.39392C24.0516 5.08496 24.0199 4.73013 23.8348 4.44951C23.6498 4.16888 23.3361 4 23 4H5.40885L4.99123 0.867836C4.92499 0.37103 4.5012 0 4 0ZM6.46717 11.9374L19.3214 11.0447L21.4835 6H5.67552L6.46717 11.9374Z" fill="#333333"/>
</svg>
