<svg width="24" height="24" viewBox="0 0 24 24" fill="none" xmlns="http://www.w3.org/2000/svg">
    <rect width="24" height="24" fill="white"/>
    <path d="M17.8204 15.5114C17.0976 14.7978 16.1952 14.7978 15.477 15.5114C14.9291 16.0547 14.3813 16.5979 13.8426 17.1504C13.6953 17.3023 13.571 17.3345 13.3914 17.2333C13.0369 17.0399 12.6594 16.8834 12.3187 16.6716C10.7303 15.6726 9.3998 14.3881 8.22119 12.9425C7.63649 12.2243 7.11625 11.4555 6.75254 10.59C6.67887 10.415 6.69268 10.2999 6.83541 10.1572C7.38327 9.62776 7.91733 9.08451 8.45599 8.54126C9.20643 7.78624 9.20643 6.90231 8.45139 6.14268C8.02322 5.70992 7.59506 5.28637 7.16689 4.85361C6.72491 4.41164 6.28754 3.96508 5.84096 3.52771C5.11814 2.82333 4.21577 2.82333 3.49755 3.53232C2.94508 4.07557 2.41563 4.63263 1.85395 5.16667C1.33371 5.65928 1.07128 6.26238 1.01603 6.96676C0.928559 8.11311 1.2094 9.195 1.60534 10.2493C2.41563 12.4315 3.64948 14.3697 5.14576 16.1468C7.16689 18.5499 9.57935 20.4513 12.4016 21.8233C13.6723 22.4402 14.989 22.9144 16.4208 22.9926C17.406 23.0479 18.2624 22.7993 18.9484 22.0304C19.418 21.5056 19.9474 21.0268 20.4446 20.525C21.1813 19.7792 21.1859 18.8768 20.4538 18.1402C19.5791 17.2609 18.6997 16.3862 17.8204 15.5114Z" stroke="#333333" stroke-width="2"/>
    <path fill-rule="evenodd" clip-rule="evenodd" d="M17.9365 11.001C18.0278 11.5475 18.4681 12 19.0222 12C19.5762 12 20.0319 11.5486 19.9635 10.9988C19.5116 7.36703 16.633 4.48844 13.0012 4.03648C12.4514 3.96807 12 4.42378 12 4.97781C12 5.53185 12.4525 5.97222 12.999 6.0635C15.5228 6.48508 17.5149 8.47717 17.9365 11.001Z" fill="#333333"/>
    <path fill-rule="evenodd" clip-rule="evenodd" d="M21.9823 10.9982C22.037 11.5496 22.4808 12 23.0349 12C23.5889 12 24.0424 11.5493 23.9968 10.9971C23.5145 5.14862 18.8514 0.485501 13.0029 0.00315558C12.4507 -0.0423828 12 0.411111 12 0.965145C12 1.51918 12.4504 1.96304 13.0018 2.01771C17.7423 2.4877 21.5123 6.25772 21.9823 10.9982Z" fill="#333333"/>
</svg>
