<svg width="16" height="16" viewBox="0 0 16 16" fill="none" xmlns="http://www.w3.org/2000/svg">
    <path d="M7.30128 9.672C7.34928 9.72 7.40528 9.744 7.46928 9.744H8.64528C8.79728 9.744 8.90528 9.644 8.96928 9.444C8.97728 9.372 8.99728 9.236 9.02928 9.036C9.07728 8.812 9.16928 8.604 9.30528 8.412C9.44928 8.212 9.64928 7.972 9.90528 7.692C10.2653 7.308 10.5333 6.972 10.7093 6.684C10.8933 6.388 10.9853 6.036 10.9853 5.628C10.9853 5.276 10.8853 4.936 10.6853 4.608C10.4933 4.28 10.1813 4.012 9.74928 3.804C9.32528 3.588 8.78128 3.48 8.11728 3.48C7.48528 3.48 6.93328 3.6 6.46128 3.84C5.98928 4.072 5.62928 4.38 5.38128 4.764C5.13328 5.148 5.00128 5.56 4.98528 6C4.98528 6.088 5.00928 6.16 5.05728 6.216C5.10528 6.264 5.16928 6.288 5.24928 6.288H6.26928C6.44528 6.288 6.56128 6.196 6.61728 6.012C6.77728 5.236 7.24928 4.848 8.03328 4.848C8.38528 4.848 8.68528 4.948 8.93328 5.148C9.18128 5.34 9.28928 5.6 9.25728 5.928C9.23328 6.12 9.15328 6.308 9.01728 6.492C8.88128 6.676 8.68128 6.896 8.41728 7.152C8.05728 7.52 7.77728 7.848 7.57728 8.136C7.38528 8.416 7.26928 8.744 7.22928 9.12V9.504C7.22928 9.568 7.25328 9.624 7.30128 9.672Z" fill="#2F80ED"/>
    <path d="M7.22928 11.916C7.28528 11.972 7.35328 12 7.43328 12H8.59728C8.68528 12 8.75728 11.972 8.81328 11.916C8.86928 11.86 8.89728 11.792 8.89728 11.712V10.668C8.89728 10.58 8.86928 10.508 8.81328 10.452C8.75728 10.396 8.68528 10.368 8.59728 10.368H7.43328C7.35328 10.368 7.28528 10.4 7.22928 10.464C7.17328 10.52 7.14528 10.588 7.14528 10.668V11.712C7.14528 11.792 7.17328 11.86 7.22928 11.916Z" fill="#2F80ED"/>
    <path fill-rule="evenodd" clip-rule="evenodd" d="M16 8C16 12.4183 12.4183 16 8 16C3.58172 16 0 12.4183 0 8C0 3.58172 3.58172 0 8 0C12.4183 0 16 3.58172 16 8ZM14.5 8C14.5 11.5899 11.5899 14.5 8 14.5C4.41015 14.5 1.5 11.5899 1.5 8C1.5 4.41015 4.41015 1.5 8 1.5C11.5899 1.5 14.5 4.41015 14.5 8Z" fill="#2F80ED"/>
</svg>
