<svg width="16" height="18" viewBox="0 0 16 18" fill="none" xmlns="http://www.w3.org/2000/svg">
<path fill-rule="evenodd" clip-rule="evenodd" d="M7.72744 18H8.21854C8.30039 18 8.30039 18 8.38224 17.9181C10.1829 17.3447 11.6562 16.4437 12.7203 15.3788C13.7025 14.4778 14.4391 13.3311 14.9302 12.0205C15.7624 9.82501 15.7555 7.41963 15.7497 5.38637C15.7492 5.21972 15.7487 5.05553 15.7487 4.8942V4.32082C15.7487 3.33788 14.9302 2.51877 13.8662 2.43686C11.7381 2.35495 10.1011 1.61775 8.70964 0.307167C8.21854 -0.102389 7.56374 -0.102389 7.07264 0.307167C5.68118 1.61775 4.04418 2.35495 1.91608 2.43686C0.933881 2.51877 0.11538 3.33788 0.0335304 4.32082V4.8942C-0.0483202 7.02389 -0.0483175 9.64505 0.852034 12.0205C1.34313 13.3311 2.07978 14.4778 3.06198 15.3788C4.20788 16.4437 5.68118 17.2628 7.40004 17.9181C7.49593 17.9181 7.56374 17.9462 7.61991 17.9695C7.65963 17.9859 7.69354 18 7.72744 18ZM6.74524 11.8567C6.49969 11.8567 6.33599 11.7747 6.17229 11.6109L4.69899 10.2184C4.37158 9.89079 4.37158 9.39932 4.69899 9.07167C5.02638 8.74403 5.51749 8.74403 5.84489 9.07167L6.74524 9.89079L9.93738 6.77816C10.2648 6.45051 10.7559 6.45051 11.0833 6.77816C11.4107 7.1058 11.4107 7.59727 11.0833 7.92491L9.20074 9.76792L7.31819 11.6109C7.15449 11.7747 6.99079 11.8567 6.74524 11.8567Z" fill="#2CB84A"/>
</svg>
