<svg width="22" height="22" viewBox="0 0 22 22" fill="none" xmlns="http://www.w3.org/2000/svg">
    <path fill-rule="evenodd" clip-rule="evenodd" d="M11 20C15.9706 20 20 15.9706 20 11C20 6.02944 15.9706 2 11 2C6.02944 2 2 6.02944 2 11C2 15.9706 6.02944 20 11 20ZM11 22C17.0751 22 22 17.0751 22 11C22 4.92487 17.0751 0 11 0C4.92487 0 0 4.92487 0 11C0 17.0751 4.92487 22 11 22Z" fill="#333333"/>
    <mask id="mask0" mask-type="alpha" maskUnits="userSpaceOnUse" x="0" y="0" width="22" height="22">
    <path d="M22 11C22 17.0751 17.0751 22 11 22C4.92487 22 0 17.0751 0 11C0 4.92487 4.92487 0 11 0C17.0751 0 22 4.92487 22 11Z" fill="#333333"/>
    </mask>
    <g mask="url(#mask0)">
    <path fill-rule="evenodd" clip-rule="evenodd" d="M11 33.75C15.9706 33.75 20 29.7206 20 24.75C20 19.7794 15.9706 15.75 11 15.75C6.02944 15.75 2 19.7794 2 24.75C2 29.7206 6.02944 33.75 11 33.75ZM11 35.75C17.0751 35.75 22 30.8251 22 24.75C22 18.6749 17.0751 13.75 11 13.75C4.92487 13.75 0 18.6749 0 24.75C0 30.8251 4.92487 35.75 11 35.75Z" fill="#333333"/>
    </g>
    <path fill-rule="evenodd" clip-rule="evenodd" d="M11 10.8333C12.4267 10.8333 13.5833 9.6767 13.5833 8.24996C13.5833 6.82322 12.4267 5.66663 11 5.66663C9.57322 5.66663 8.41663 6.82322 8.41663 8.24996C8.41663 9.6767 9.57322 10.8333 11 10.8333ZM11 12.8333C13.5313 12.8333 15.5833 10.7813 15.5833 8.24996C15.5833 5.71865 13.5313 3.66663 11 3.66663C8.46865 3.66663 6.41663 5.71865 6.41663 8.24996C6.41663 10.7813 8.46865 12.8333 11 12.8333Z" fill="#333333"/>
</svg>
